<svg xmlns="http://www.w3.org/2000/svg" width="960" height="280" viewBox="0 0 960 280" role="img" aria-label="Contributions — last 31 days">
<style>
  .title { font: 600 18px 'Segoe UI', Ubuntu, 'Helvetica Neue', Arial, sans-serif; fill: #339933; }
  .label { font: 400 14px 'Segoe UI', Ubuntu, 'Helvetica Neue', Arial, sans-serif; fill: #57606a; }
  .value { font: 700 14px 'Segoe UI', Ubuntu, 'Helvetica Neue', Arial, sans-serif; fill: #24292f; }
  .big { font: 700 28px 'Segoe UI', Ubuntu, 'Helvetica Neue', Arial, sans-serif; fill: #24292f; }
  .small { font: 400 12px 'Segoe UI', Ubuntu, 'Helvetica Neue', Arial, sans-serif; fill: #57606a; }
  .card { fill: #ffffff; stroke: #d0d7de; }
  .grid { stroke: #d0d7de; }
  @media (prefers-color-scheme: dark) {
    .label, .small { fill: #8b949e; }
    .value, .big { fill: #e6edf3; }
    .card { fill: #0d1117; stroke: #30363d; }
    .grid { stroke: #30363d; }
  }
</style>
<rect class="card" x="0.5" y="0.5" rx="8" width="959" height="279"/>
<text class="title" x="24" y="36">Contributions — last 31 days</text>
<defs><linearGradient id="a" x1="0" y1="0" x2="0" y2="1"><stop offset="0" stop-color="#3178C6" stop-opacity=".45"/><stop offset="1" stop-color="#3178C6" stop-opacity="0"/></linearGradient></defs>
<line class="grid" x1="56" y1="236" x2="936" y2="236" stroke-dasharray="3 4"/><text class="small" x="46" y="240" text-anchor="end">0</text>
<line class="grid" x1="56" y1="192" x2="936" y2="192" stroke-dasharray="3 4"/><text class="small" x="46" y="196" text-anchor="end">1</text>
<line class="grid" x1="56" y1="148" x2="936" y2="148" stroke-dasharray="3 4"/><text class="small" x="46" y="152" text-anchor="end">2</text>
<line class="grid" x1="56" y1="104" x2="936" y2="104" stroke-dasharray="3 4"/><text class="small" x="46" y="108" text-anchor="end">3</text>
<line class="grid" x1="56" y1="60" x2="936" y2="60" stroke-dasharray="3 4"/><text class="small" x="46" y="64" text-anchor="end">4</text>
<path d="M56.0 236.0L85.3 236.0L114.7 236.0L144.0 236.0L173.3 236.0L202.7 236.0L232.0 236.0L261.3 236.0L290.7 236.0L320.0 236.0L349.3 236.0L378.7 236.0L408.0 236.0L437.3 236.0L466.7 236.0L496.0 236.0L525.3 236.0L554.7 104.0L584.0 236.0L613.3 236.0L642.7 236.0L672.0 236.0L701.3 236.0L730.7 236.0L760.0 236.0L789.3 236.0L818.7 236.0L848.0 236.0L877.3 236.0L906.7 236.0L936.0 60.0L936.0 236L56 236Z" fill="url(#a)"/>
<path d="M56.0 236.0L85.3 236.0L114.7 236.0L144.0 236.0L173.3 236.0L202.7 236.0L232.0 236.0L261.3 236.0L290.7 236.0L320.0 236.0L349.3 236.0L378.7 236.0L408.0 236.0L437.3 236.0L466.7 236.0L496.0 236.0L525.3 236.0L554.7 104.0L584.0 236.0L613.3 236.0L642.7 236.0L672.0 236.0L701.3 236.0L730.7 236.0L760.0 236.0L789.3 236.0L818.7 236.0L848.0 236.0L877.3 236.0L906.7 236.0L936.0 60.0" fill="none" stroke="#3178C6" stroke-width="3" stroke-linejoin="round"/>
<g><circle cx="56.0" cy="236.0" r="3.5" fill="#339933"/><circle cx="85.3" cy="236.0" r="3.5" fill="#339933"/><circle cx="114.7" cy="236.0" r="3.5" fill="#339933"/><circle cx="144.0" cy="236.0" r="3.5" fill="#339933"/><circle cx="173.3" cy="236.0" r="3.5" fill="#339933"/><circle cx="202.7" cy="236.0" r="3.5" fill="#339933"/><circle cx="232.0" cy="236.0" r="3.5" fill="#339933"/><circle cx="261.3" cy="236.0" r="3.5" fill="#339933"/><circle cx="290.7" cy="236.0" r="3.5" fill="#339933"/><circle cx="320.0" cy="236.0" r="3.5" fill="#339933"/><circle cx="349.3" cy="236.0" r="3.5" fill="#339933"/><circle cx="378.7" cy="236.0" r="3.5" fill="#339933"/><circle cx="408.0" cy="236.0" r="3.5" fill="#339933"/><circle cx="437.3" cy="236.0" r="3.5" fill="#339933"/><circle cx="466.7" cy="236.0" r="3.5" fill="#339933"/><circle cx="496.0" cy="236.0" r="3.5" fill="#339933"/><circle cx="525.3" cy="236.0" r="3.5" fill="#339933"/><circle cx="554.7" cy="104.0" r="3.5" fill="#339933"/><circle cx="584.0" cy="236.0" r="3.5" fill="#339933"/><circle cx="613.3" cy="236.0" r="3.5" fill="#339933"/><circle cx="642.7" cy="236.0" r="3.5" fill="#339933"/><circle cx="672.0" cy="236.0" r="3.5" fill="#339933"/><circle cx="701.3" cy="236.0" r="3.5" fill="#339933"/><circle cx="730.7" cy="236.0" r="3.5" fill="#339933"/><circle cx="760.0" cy="236.0" r="3.5" fill="#339933"/><circle cx="789.3" cy="236.0" r="3.5" fill="#339933"/><circle cx="818.7" cy="236.0" r="3.5" fill="#339933"/><circle cx="848.0" cy="236.0" r="3.5" fill="#339933"/><circle cx="877.3" cy="236.0" r="3.5" fill="#339933"/><circle cx="906.7" cy="236.0" r="3.5" fill="#339933"/><circle cx="936.0" cy="60.0" r="3.5" fill="#339933"/></g>
<text class="small" x="56" y="262" text-anchor="middle">08/26</text><text class="small" x="202.66666666666666" y="262" text-anchor="middle">08/31</text><text class="small" x="349.3333333333333" y="262" text-anchor="middle">09/05</text><text class="small" x="496" y="262" text-anchor="middle">09/10</text><text class="small" x="642.6666666666666" y="262" text-anchor="middle">09/15</text><text class="small" x="789.3333333333334" y="262" text-anchor="middle">09/20</text><text class="small" x="936" y="262" text-anchor="middle">09/25</text>
</svg>
